<svg width="20" height="20" viewBox="0 0 20 20" fill="none" xmlns="http://www.w3.org/2000/svg">
<path d="M10.0001 0.902344C8.20076 0.902344 6.4418 1.43592 4.94568 2.4356C3.44955 3.43527 2.28347 4.85615 1.59488 6.51856C0.906286 8.18096 0.726119 10.0102 1.07716 11.775C1.4282 13.5398 2.29468 15.1609 3.56703 16.4332C4.83938 17.7056 6.46045 18.5721 8.22524 18.9231C9.99004 19.2741 11.8193 19.094 13.4817 18.4054C15.1441 17.7168 16.565 16.5507 17.5647 15.0546C18.5643 13.5585 19.0979 11.7995 19.0979 10.0001C19.0954 7.58803 18.136 5.27545 16.4304 3.56984C14.7248 1.86422 12.4122 0.904891 10.0001 0.902344ZM13.9944 8.39577L9.0956 13.2946C9.03061 13.3596 8.95343 13.4113 8.86847 13.4465C8.78351 13.4817 8.69244 13.4998 8.60048 13.4998C8.50851 13.4998 8.41744 13.4817 8.33248 13.4465C8.24752 13.4113 8.17034 13.3596 8.10535 13.2946L6.00586 11.1951C5.87454 11.0638 5.80077 10.8857 5.80077 10.7C5.80077 10.5143 5.87454 10.3361 6.00586 10.2048C6.13717 10.0735 6.31528 9.99974 6.50099 9.99974C6.6867 9.99974 6.8648 10.0735 6.99612 10.2048L8.60048 11.8101L13.0042 7.40551C13.0692 7.34049 13.1464 7.28891 13.2313 7.25372C13.3163 7.21853 13.4073 7.20042 13.4993 7.20042C13.5912 7.20042 13.6823 7.21853 13.7672 7.25372C13.8522 7.28891 13.9294 7.34049 13.9944 7.40551C14.0594 7.47053 14.111 7.54772 14.1462 7.63268C14.1814 7.71763 14.1995 7.80869 14.1995 7.90064C14.1995 7.9926 14.1814 8.08365 14.1462 8.1686C14.111 8.25356 14.0594 8.33075 13.9944 8.39577Z" fill="#8DC1E0"/>
</svg>
