<svg width="18" height="18" viewBox="0 0 18 18" fill="none" xmlns="http://www.w3.org/2000/svg">
<path d="M16.0585 2.46091L2.436 16.0834C2.29399 16.2255 2.10138 16.3052 1.90056 16.3052C1.69973 16.3052 1.50712 16.2255 1.36511 16.0834C1.22311 15.9414 1.14333 15.7488 1.14333 15.548C1.14333 15.3472 1.22311 15.1546 1.36511 15.0126L14.9876 1.39003C15.1295 1.24802 15.322 1.16819 15.5228 1.16811C15.7235 1.16802 15.916 1.24768 16.0581 1.38956C16.2001 1.53144 16.2799 1.72392 16.28 1.92467C16.2801 2.12541 16.2004 2.31796 16.0585 2.45997V2.46091ZM1.38403 6.22603C0.745375 5.58725 0.38663 4.72092 0.386719 3.81763C0.386807 2.91434 0.745722 2.04808 1.38451 1.40942C2.02329 0.770766 2.88962 0.412021 3.79291 0.412109C4.6962 0.412198 5.56245 0.771113 6.20111 1.4099C6.83977 2.04868 7.19852 2.91501 7.19843 3.8183C7.19834 4.72159 6.83942 5.58784 6.20064 6.2265C5.56186 6.86516 4.69553 7.22391 3.79224 7.22382C2.88895 7.22373 2.02269 6.86482 1.38403 6.22603ZM1.90056 3.81938C1.9008 4.13048 1.97775 4.43671 2.12459 4.71097C2.27144 4.98522 2.48364 5.21904 2.74241 5.39171C3.00118 5.56438 3.29854 5.67058 3.60815 5.7009C3.91777 5.73123 4.23008 5.68474 4.51744 5.56555C4.80479 5.44637 5.05833 5.25816 5.25559 5.01761C5.45285 4.77705 5.58775 4.49157 5.64835 4.18643C5.70895 3.8813 5.69337 3.56593 5.603 3.26825C5.51262 2.97058 5.35024 2.69978 5.13023 2.47983C4.86551 2.2152 4.52825 2.03503 4.16111 1.96212C3.79397 1.88921 3.41346 1.92683 3.06771 2.07024C2.72196 2.21364 2.42652 2.45638 2.21876 2.76773C2.011 3.07909 1.90026 3.44507 1.90056 3.81938ZM17.0367 13.6579C17.0365 14.4458 16.7632 15.2092 16.2632 15.8182C15.7632 16.4271 15.0676 16.8439 14.2948 16.9974C13.522 17.151 12.7198 17.0318 12.025 16.6603C11.3303 16.2887 10.7858 15.6877 10.4844 14.9598C10.183 14.2318 10.1434 13.4218 10.3723 12.6679C10.6011 11.9139 11.0843 11.2627 11.7395 10.8251C12.3947 10.3875 13.1814 10.1906 13.9655 10.2679C14.7496 10.3453 15.4826 10.6921 16.0396 11.2493C16.3568 11.5649 16.6083 11.9403 16.7795 12.3537C16.9506 12.7671 17.0381 13.2104 17.0367 13.6579ZM15.5231 13.6579C15.5232 13.2201 15.3715 12.7959 15.0939 12.4575C14.8162 12.1191 14.4299 11.8874 14.0006 11.8019C13.5712 11.7164 13.1256 11.7824 12.7395 11.9887C12.3534 12.195 12.0508 12.5287 11.8832 12.9331C11.7156 13.3375 11.6934 13.7875 11.8204 14.2064C11.9474 14.6253 12.2157 14.9872 12.5797 15.2305C12.9436 15.4737 13.3806 15.5832 13.8162 15.5404C14.2519 15.4976 14.6592 15.305 14.9687 14.9955C15.145 14.8203 15.2847 14.6118 15.3799 14.3822C15.475 14.1526 15.5237 13.9064 15.5231 13.6579Z" fill="#8DC1E0"/>
</svg>
