<svg width="18" height="24" viewBox="0 0 18 24" fill="none" xmlns="http://www.w3.org/2000/svg">
<path d="M8 3.31041V12.0001C8 12.199 7.92098 12.3898 7.78033 12.5304C7.63968 12.6711 7.44891 12.7501 7.25 12.7501C7.05109 12.7501 6.86032 12.6711 6.71967 12.5304C6.57902 12.3898 6.5 12.199 6.5 12.0001V3.31041L4.78063 5.03073C4.71094 5.10041 4.62822 5.15568 4.53717 5.1934C4.44613 5.23111 4.34855 5.25052 4.25 5.25052C4.05098 5.25052 3.86011 5.17146 3.71937 5.03073C3.64969 4.96104 3.59442 4.87832 3.5567 4.78727C3.51899 4.69623 3.49958 4.59865 3.49958 4.5001C3.49958 4.30108 3.57864 4.11021 3.71937 3.96948L6.71937 0.969477C6.78903 0.899744 6.87175 0.844425 6.96279 0.806682C7.05384 0.768939 7.15144 0.749512 7.25 0.749512C7.34856 0.749512 7.44616 0.768939 7.53721 0.806682C7.62825 0.844425 7.71097 0.899744 7.78063 0.969477L10.7806 3.96948C10.9214 4.11021 11.0004 4.30108 11.0004 4.5001C11.0004 4.69912 10.9214 4.89 10.7806 5.03073C10.6399 5.17146 10.449 5.25052 10.25 5.25052C10.051 5.25052 9.86011 5.17146 9.71937 5.03073L8 3.31041ZM14 11.5895V9.0001C14 8.60228 13.842 8.22075 13.5607 7.93944C13.2794 7.65814 12.8978 7.5001 12.5 7.5001H11C10.8011 7.5001 10.6103 7.57912 10.4697 7.71977C10.329 7.86042 10.25 8.05119 10.25 8.2501C10.25 8.44901 10.329 8.63978 10.4697 8.78043C10.6103 8.92108 10.8011 9.0001 11 9.0001H12.5V16.5376C12.0527 16.0807 11.4541 15.8027 10.8164 15.7559C10.1788 15.7091 9.54594 15.8966 9.03672 16.2833C8.52751 16.6699 8.17692 17.2291 8.05077 17.8559C7.92462 18.4828 8.03157 19.1341 8.35156 19.6876L8.37406 19.7232L10.4609 22.9107C10.5698 23.0772 10.7404 23.1936 10.9351 23.2343C11.1298 23.275 11.3328 23.2367 11.4992 23.1278C11.6657 23.0189 11.7821 22.8483 11.8228 22.6536C11.8635 22.4588 11.8252 22.2559 11.7162 22.0895L9.64156 18.9217C9.49449 18.662 9.45661 18.3545 9.53626 18.0668C9.6159 17.7792 9.80654 17.535 10.0662 17.3879C10.326 17.2408 10.6334 17.203 10.9211 17.2826C11.2087 17.3623 11.4529 17.5529 11.6 17.8126C11.6066 17.8248 11.6141 17.837 11.6216 17.8482L12.6228 19.3773C12.7113 19.5123 12.841 19.6151 12.9926 19.6705C13.1442 19.7259 13.3096 19.7309 13.4643 19.6848C13.619 19.6386 13.7546 19.5439 13.8512 19.4145C13.9477 19.2851 13.9999 19.1281 14 18.9667V13.5001C14.7069 14.1545 15.2715 14.9474 15.6586 15.8295C16.0457 16.7116 16.247 17.664 16.25 18.6273V22.5001C16.25 22.699 16.329 22.8898 16.4697 23.0304C16.6103 23.1711 16.8011 23.2501 17 23.2501C17.1989 23.2501 17.3897 23.1711 17.5303 23.0304C17.671 22.8898 17.75 22.699 17.75 22.5001V18.6235C17.7458 17.2342 17.4018 15.867 16.7482 14.641C16.0946 13.415 15.1512 12.3674 14 11.5895ZM3.5 7.5001H2C1.60218 7.5001 1.22064 7.65814 0.93934 7.93944C0.658035 8.22075 0.5 8.60228 0.5 9.0001V18.7501C0.5 18.949 0.579018 19.1398 0.71967 19.2804C0.860322 19.4211 1.05109 19.5001 1.25 19.5001C1.44891 19.5001 1.63968 19.4211 1.78033 19.2804C1.92098 19.1398 2 18.949 2 18.7501V9.0001H3.5C3.69891 9.0001 3.88968 8.92108 4.03033 8.78043C4.17098 8.63978 4.25 8.44901 4.25 8.2501C4.25 8.05119 4.17098 7.86042 4.03033 7.71977C3.88968 7.57912 3.69891 7.5001 3.5 7.5001Z" fill="#8DC1E0"/>
</svg>
