<svg width="18" height="18" viewBox="0 0 18 18" fill="none" xmlns="http://www.w3.org/2000/svg">
<path d="M2.00898 17.8793C1.48128 17.8793 1.03463 17.6965 0.66902 17.3309C0.30341 16.9653 0.120605 16.5186 0.120605 15.9909V2.00947C0.120605 1.48177 0.30341 1.03512 0.66902 0.669509C1.03463 0.303899 1.48128 0.121094 2.00898 0.121094H15.9904C16.5181 0.121094 16.9648 0.303899 17.3304 0.669509C17.696 1.03512 17.8788 1.48177 17.8788 2.00947V15.9909C17.8788 16.5186 17.696 16.9653 17.3304 17.3309C16.9648 17.6965 16.5181 17.8793 15.9904 17.8793H2.00898ZM2.00898 16.3124H15.9904C16.0709 16.3124 16.1445 16.2789 16.2114 16.2118C16.2784 16.145 16.3119 16.0713 16.3119 15.9909V2.00947C16.3119 1.92903 16.2784 1.85539 16.2114 1.78854C16.1445 1.72151 16.0709 1.68799 15.9904 1.68799H2.00898C1.92855 1.68799 1.8549 1.72151 1.78805 1.78854C1.72102 1.85539 1.6875 1.92903 1.6875 2.00947V15.9909C1.6875 16.0713 1.72102 16.145 1.78805 16.2118C1.8549 16.2789 1.92855 16.3124 2.00898 16.3124ZM4.8213 13.962H10.0443C10.2666 13.962 10.4527 13.887 10.6026 13.7369C10.7527 13.587 10.8278 13.4009 10.8278 13.1786C10.8278 12.9563 10.7527 12.7702 10.6026 12.6203C10.4527 12.4702 10.2666 12.3951 10.0443 12.3951H4.8213C4.59898 12.3951 4.41287 12.4702 4.26297 12.6203C4.11289 12.7702 4.03785 12.9563 4.03785 13.1786C4.03785 13.4009 4.11289 13.587 4.26297 13.7369C4.41287 13.887 4.59898 13.962 4.8213 13.962ZM4.8213 9.78364H13.1781C13.4004 9.78364 13.5865 9.7086 13.7364 9.55853C13.8865 9.40863 13.9616 9.22252 13.9616 9.00019C13.9616 8.77787 13.8865 8.59175 13.7364 8.44185C13.5865 8.29178 13.4004 8.21674 13.1781 8.21674H4.8213C4.59898 8.21674 4.41287 8.29178 4.26297 8.44185C4.11289 8.59175 4.03785 8.77787 4.03785 9.00019C4.03785 9.22252 4.11289 9.40863 4.26297 9.55853C4.41287 9.7086 4.59898 9.78364 4.8213 9.78364ZM4.8213 5.60524H13.1781C13.4004 5.60524 13.5865 5.5302 13.7364 5.38013C13.8865 5.23023 13.9616 5.04412 13.9616 4.82179C13.9616 4.59947 13.8865 4.41335 13.7364 4.26345C13.5865 4.11338 13.4004 4.03834 13.1781 4.03834H4.8213C4.59898 4.03834 4.41287 4.11338 4.26297 4.26345C4.11289 4.41335 4.03785 4.59947 4.03785 4.82179C4.03785 5.04412 4.11289 5.23023 4.26297 5.38013C4.41287 5.5302 4.59898 5.60524 4.8213 5.60524Z" fill="#8DC1E0"/>
</svg>
