<svg width="20" height="20" viewBox="0 0 20 20" fill="none" xmlns="http://www.w3.org/2000/svg">
<rect width="20" height="20" rx="10" fill="black"/>
<path d="M2.40234 6.35479C3.64778 6.34973 4.88815 6.35479 6.13358 6.35479C7.44314 8.61614 8.75101 10.8792 10.0572 13.1439C9.89519 13.4122 9.7433 13.6856 9.5813 13.9539C9.37372 14.2982 9.09528 14.6172 8.7257 14.7893C8.45231 14.926 8.11817 14.9564 7.82453 14.8602C7.4752 14.7488 7.19169 14.5007 6.97399 14.2172C6.8373 14.0451 6.73604 13.8476 6.62466 13.6603C5.21722 11.2251 3.80978 8.78996 2.40234 6.35479ZM7.36382 6.35479C8.60419 6.34973 9.84962 6.35479 11.09 6.35479C11.9608 7.85336 12.8316 9.35699 13.6973 10.8556C13.753 10.9467 13.7986 11.0479 13.8745 11.1239C14.0416 11.3163 14.315 11.4125 14.5681 11.3466C14.7554 11.3011 14.9124 11.1644 15.0187 11.0024C14.1226 9.45318 13.2265 7.90399 12.3304 6.35479C13.5724 6.35479 14.8162 6.35479 16.0616 6.35479C16.5409 7.18508 17.0201 8.01705 17.4994 8.85072C16.5206 10.5417 15.5418 12.2343 14.563 13.9286C14.3706 14.2577 14.1175 14.5564 13.7834 14.7437C13.5049 14.9057 13.1606 14.9614 12.8468 14.8754C12.4873 14.7842 12.1937 14.5412 11.9658 14.2527C11.8089 14.0603 11.6925 13.8426 11.571 13.6249C10.1669 11.2015 8.76451 8.77815 7.36382 6.35479Z" fill="#FFDD00"/>
</svg>
