<svg width="19" height="19" viewBox="0 0 19 19" fill="none" xmlns="http://www.w3.org/2000/svg">
<path d="M18.2876 8.18899L10.7876 0.688992C10.5063 0.4079 10.125 0.25 9.7273 0.25C9.32965 0.25 8.94827 0.4079 8.66699 0.688992L1.16699 8.18899C1.02703 8.32792 0.916078 8.49328 0.840595 8.67547C0.765112 8.85766 0.726602 9.05304 0.727304 9.25024V18.2502C0.727304 18.4492 0.806322 18.6399 0.946974 18.7806C1.08763 18.9212 1.27839 19.0002 1.4773 19.0002H7.4773C7.67622 19.0002 7.86698 18.9212 8.00763 18.7806C8.14829 18.6399 8.2273 18.4492 8.2273 18.2502V13.0002H11.2273V18.2502C11.2273 18.4492 11.3063 18.6399 11.447 18.7806C11.5876 18.9212 11.7784 19.0002 11.9773 19.0002H17.9773C18.1762 19.0002 18.367 18.9212 18.5076 18.7806C18.6483 18.6399 18.7273 18.4492 18.7273 18.2502V9.25024C18.728 9.05304 18.6895 8.85766 18.614 8.67547C18.5385 8.49328 18.4276 8.32792 18.2876 8.18899ZM17.2273 17.5002H12.7273V12.2502C12.7273 12.0513 12.6483 11.8606 12.5076 11.7199C12.367 11.5793 12.1762 11.5002 11.9773 11.5002H7.4773C7.27839 11.5002 7.08763 11.5793 6.94697 11.7199C6.80632 11.8606 6.7273 12.0513 6.7273 12.2502V17.5002H2.2273V9.25024L9.7273 1.75024L17.2273 9.25024V17.5002Z" fill="#677379"/>
</svg>
