<svg width="17" height="17" viewBox="0 0 17 17" fill="none" xmlns="http://www.w3.org/2000/svg">
<path d="M6.9975 16.1165C6.9975 16.2933 6.92727 16.4629 6.80225 16.5879C6.67723 16.7129 6.50766 16.7832 6.33086 16.7832H0.997699C0.820894 16.7832 0.651331 16.7129 0.526311 16.5879C0.40129 16.4629 0.331055 16.2933 0.331055 16.1165V1.45034C0.331055 1.27353 0.40129 1.10397 0.526311 0.978947C0.651331 0.853927 0.820894 0.783691 0.997699 0.783691H6.33086C6.50766 0.783691 6.67723 0.853927 6.80225 0.978947C6.92727 1.10397 6.9975 1.27353 6.9975 1.45034C6.9975 1.62714 6.92727 1.7967 6.80225 1.92173C6.67723 2.04675 6.50766 2.11698 6.33086 2.11698H1.66434V15.4499H6.33086C6.50766 15.4499 6.67723 15.5201 6.80225 15.6451C6.92727 15.7702 6.9975 15.9397 6.9975 16.1165ZM16.1355 8.31178L12.8023 4.97855C12.6772 4.85346 12.5076 4.78319 12.3307 4.78319C12.1538 4.78319 11.9841 4.85346 11.859 4.97855C11.7339 5.10364 11.6636 5.2733 11.6636 5.4502C11.6636 5.62711 11.7339 5.79677 11.859 5.92186L14.0548 8.11678H6.33086C6.15405 8.11678 5.98449 8.18702 5.85947 8.31204C5.73445 8.43706 5.66421 8.60662 5.66421 8.78343C5.66421 8.96023 5.73445 9.1298 5.85947 9.25482C5.98449 9.37984 6.15405 9.45007 6.33086 9.45007H14.0548L11.859 11.645C11.7339 11.7701 11.6636 11.9397 11.6636 12.1167C11.6636 12.2936 11.7339 12.4632 11.859 12.5883C11.9841 12.7134 12.1538 12.7837 12.3307 12.7837C12.5076 12.7837 12.6772 12.7134 12.8023 12.5883L16.1355 9.25508C16.1975 9.19317 16.2467 9.11964 16.2802 9.03871C16.3138 8.95778 16.3311 8.87104 16.3311 8.78343C16.3311 8.69582 16.3138 8.60907 16.2802 8.52814C16.2467 8.44721 16.1975 8.37369 16.1355 8.31178Z" fill="#131B20"/>
</svg>
