<svg width="19" height="18" viewBox="0 0 19 18" fill="none" xmlns="http://www.w3.org/2000/svg">
<path d="M16.9775 6.97661C16.6746 6.66 16.3612 6.33375 16.2431 6.04688C16.1338 5.78411 16.1273 5.34857 16.1209 4.9267C16.1089 4.14241 16.096 3.25366 15.4781 2.63571C14.8601 2.01777 13.9714 2.00491 13.1871 1.99286C12.7652 1.98643 12.3297 1.98 12.0669 1.87071C11.7808 1.75259 11.4538 1.4392 11.1372 1.13625C10.5827 0.603482 9.9527 0 9.11377 0C8.27484 0 7.64564 0.603482 7.09038 1.13625C6.77377 1.4392 6.44752 1.75259 6.16064 1.87071C5.89948 1.98 5.46234 1.98643 5.04047 1.99286C4.25618 2.00491 3.36743 2.01777 2.74948 2.63571C2.13154 3.25366 2.1227 4.14241 2.10663 4.9267C2.1002 5.34857 2.09377 5.78411 1.98448 6.04688C1.86636 6.33295 1.55297 6.66 1.25002 6.97661C0.717252 7.53187 0.11377 8.16107 0.11377 9C0.11377 9.83893 0.717252 10.4681 1.25002 11.0234C1.55297 11.34 1.86636 11.6663 1.98448 11.9531C2.09377 12.2159 2.1002 12.6514 2.10663 13.0733C2.11868 13.8576 2.13154 14.7463 2.74948 15.3643C3.36743 15.9822 4.25618 15.9951 5.04047 16.0071C5.46234 16.0136 5.89788 16.02 6.16064 16.1293C6.44672 16.2474 6.77377 16.5608 7.09038 16.8638C7.64484 17.3965 8.27484 18 9.11377 18C9.9527 18 10.5819 17.3965 11.1372 16.8638C11.4538 16.5608 11.78 16.2474 12.0669 16.1293C12.3297 16.02 12.7652 16.0136 13.1871 16.0071C13.9714 15.9951 14.8601 15.9822 15.4781 15.3643C16.096 14.7463 16.1089 13.8576 16.1209 13.0733C16.1273 12.6514 16.1338 12.2159 16.2431 11.9531C16.3612 11.6671 16.6746 11.34 16.9775 11.0234C17.5103 10.4681 18.1138 9.83893 18.1138 9C18.1138 8.16107 17.5103 7.53187 16.9775 6.97661ZM16.0494 10.1338C15.6645 10.5356 15.2659 10.9511 15.0546 11.4613C14.8521 11.9515 14.8432 12.5116 14.8352 13.054C14.8272 13.6165 14.8183 14.2055 14.5684 14.4546C14.3185 14.7038 13.7335 14.7134 13.1678 14.7214C12.6254 14.7295 12.0653 14.7383 11.5751 14.9408C11.0648 15.1521 10.6494 15.5507 10.2476 15.9356C9.84582 16.3205 9.4352 16.7143 9.11377 16.7143C8.79234 16.7143 8.3785 16.3189 7.97993 15.9356C7.58136 15.5523 7.1627 15.1521 6.65243 14.9408C6.16225 14.7383 5.60216 14.7295 5.05975 14.7214C4.49725 14.7134 3.90823 14.7046 3.65913 14.4546C3.41002 14.2047 3.40038 13.6197 3.39234 13.054C3.38431 12.5116 3.37547 11.9515 3.17297 11.4613C2.96163 10.9511 2.56306 10.5356 2.17814 10.1338C1.79323 9.73205 1.39948 9.32143 1.39948 9C1.39948 8.67857 1.79484 8.26554 2.17814 7.86616C2.56145 7.46679 2.96163 7.04893 3.17297 6.53866C3.37547 6.04848 3.38431 5.48839 3.39234 4.94598C3.40038 4.38348 3.40922 3.79446 3.65913 3.54536C3.90904 3.29625 4.49404 3.28661 5.05975 3.27857C5.60216 3.27054 6.16225 3.2617 6.65243 3.0592C7.1627 2.84786 7.57814 2.44929 7.97993 2.06437C8.38172 1.67946 8.79234 1.28571 9.11377 1.28571C9.4352 1.28571 9.84904 1.68107 10.2476 2.06437C10.6462 2.44768 11.0648 2.84786 11.5751 3.0592C12.0653 3.2617 12.6254 3.27054 13.1678 3.27857C13.7303 3.28661 14.3193 3.29545 14.5684 3.54536C14.8175 3.79527 14.8272 4.38027 14.8352 4.94598C14.8432 5.48839 14.8521 6.04848 15.0546 6.53866C15.2659 7.04893 15.6645 7.46438 16.0494 7.86616C16.4343 8.26795 16.8281 8.67857 16.8281 9C16.8281 9.32143 16.4327 9.73446 16.0494 10.1338ZM8.47091 6.42857C8.47091 6.04714 8.3578 5.67427 8.14589 5.35711C7.93398 5.03996 7.63277 4.79277 7.28037 4.6468C6.92797 4.50083 6.5402 4.46264 6.1661 4.53706C5.79199 4.61147 5.44835 4.79515 5.17863 5.06487C4.90892 5.33458 4.72524 5.67822 4.65083 6.05233C4.57641 6.42643 4.6146 6.8142 4.76057 7.1666C4.90654 7.519 5.15373 7.82021 5.47088 8.03212C5.78804 8.24403 6.16091 8.35714 6.54234 8.35714C7.05383 8.35714 7.54437 8.15395 7.90605 7.79228C8.26772 7.4306 8.47091 6.94006 8.47091 6.42857ZM5.89948 6.42857C5.89948 6.30143 5.93719 6.17714 6.00782 6.07142C6.07846 5.9657 6.17886 5.88331 6.29633 5.83465C6.4138 5.78599 6.54305 5.77326 6.66776 5.79807C6.79246 5.82287 6.907 5.8841 6.99691 5.974C7.08681 6.06391 7.14804 6.17845 7.17285 6.30316C7.19765 6.42786 7.18492 6.55712 7.13626 6.67458C7.08761 6.79205 7.00521 6.89245 6.89949 6.96309C6.79378 7.03373 6.66949 7.07143 6.54234 7.07143C6.37184 7.07143 6.20833 7.0037 6.08777 6.88314C5.96721 6.76258 5.89948 6.59907 5.89948 6.42857ZM11.6852 9.64286C11.3038 9.64286 10.9309 9.75597 10.6137 9.96788C10.2966 10.1798 10.0494 10.481 9.90343 10.8334C9.75746 11.1858 9.71927 11.5736 9.79368 11.9477C9.8681 12.3218 10.0518 12.6654 10.3215 12.9351C10.5912 13.2049 10.9348 13.3885 11.309 13.4629C11.6831 13.5374 12.0708 13.4992 12.4232 13.3532C12.7756 13.2072 13.0768 12.96 13.2887 12.6429C13.5007 12.3257 13.6138 11.9529 13.6138 11.5714C13.6138 11.0599 13.4106 10.5694 13.0489 10.2077C12.6872 9.84604 12.1967 9.64286 11.6852 9.64286ZM11.6852 12.2143C11.5581 12.2143 11.4338 12.1766 11.328 12.1059C11.2223 12.0353 11.1399 11.9349 11.0913 11.8174C11.0426 11.7 11.0299 11.5707 11.0547 11.446C11.0795 11.3213 11.1407 11.2068 11.2306 11.1169C11.3205 11.027 11.4351 10.9657 11.5598 10.9409C11.6845 10.9161 11.8137 10.9288 11.9312 10.9775C12.0487 11.0262 12.1491 11.1086 12.2197 11.2143C12.2904 11.32 12.3281 11.4443 12.3281 11.5714C12.3281 11.7419 12.2603 11.9054 12.1398 12.026C12.0192 12.1466 11.8557 12.2143 11.6852 12.2143ZM12.7829 6.24054L6.35431 12.6691C6.29458 12.7288 6.22367 12.7762 6.14563 12.8085C6.06759 12.8409 5.98395 12.8575 5.89948 12.8575C5.81502 12.8575 5.73137 12.8409 5.65334 12.8085C5.5753 12.7762 5.50439 12.7288 5.44466 12.6691C5.38493 12.6094 5.33756 12.5385 5.30523 12.4604C5.27291 12.3824 5.25627 12.2988 5.25627 12.2143C5.25627 12.1298 5.27291 12.0462 5.30523 11.9681C5.33756 11.8901 5.38493 11.8192 5.44466 11.7595L11.8732 5.33089C11.933 5.27116 12.0039 5.22379 12.0819 5.19146C12.1599 5.15914 12.2436 5.1425 12.3281 5.1425C12.4125 5.1425 12.4962 5.15914 12.5742 5.19146C12.6522 5.22379 12.7231 5.27116 12.7829 5.33089C12.8426 5.39062 12.89 5.46153 12.9223 5.53957C12.9546 5.6176 12.9713 5.70125 12.9713 5.78571C12.9713 5.87018 12.9546 5.95382 12.9223 6.03186C12.89 6.1099 12.8426 6.18081 12.7829 6.24054Z" fill="#677379"/>
</svg>
