<svg width="15" height="20" viewBox="0 0 15 20" fill="none" xmlns="http://www.w3.org/2000/svg">
<path d="M3.33157 7.1431C3.75807 7.1431 4.10381 7.50287 4.10382 7.94665C4.10382 8.39044 3.75807 8.75021 3.33157 8.75021H2.30191C2.15975 8.75021 2.04451 8.87014 2.04449 9.01806V19.1964C2.04449 19.6402 1.69875 20 1.27225 20C0.845747 20 0.5 19.6402 0.5 19.1964V9.01806C0.500015 7.98256 1.30675 7.1431 2.30191 7.1431H3.33157Z" fill="#677379"/>
<path d="M12.6981 7.1431C13.6931 7.14324 14.5 7.98265 14.5 9.01806V19.1964C14.5 19.6401 14.1541 19.9999 13.7278 20C13.3013 20 12.9555 19.6402 12.9555 19.1964V9.01806C12.9555 8.87023 12.8401 8.75035 12.6981 8.75021H11.6684C11.2419 8.75021 10.8962 8.39044 10.8962 7.94665C10.8962 7.50287 11.2419 7.1431 11.6684 7.1431H12.6981Z" fill="#677379"/>
<path d="M7.06209 0.179985C7.36541 -0.0772873 7.8131 -0.0587023 8.09578 0.235439L11.1848 3.44967C11.4862 3.76341 11.4861 4.27214 11.1848 4.58594C10.8832 4.89974 10.3943 4.8997 10.0928 4.58594L8.32202 2.74341V12.0534C8.32202 12.4971 7.97616 12.8568 7.54977 12.8569C7.12327 12.8569 6.77753 12.4972 6.77753 12.0534V2.74341L5.00679 4.58594C4.70522 4.89974 4.21637 4.8997 3.91478 4.58594C3.6132 4.27214 3.6132 3.76347 3.91478 3.44967L7.00377 0.235439L7.06209 0.179985Z" fill="#677379"/>
</svg>
