<svg width="16" height="18" viewBox="0 0 16 18" fill="none" xmlns="http://www.w3.org/2000/svg">
<path d="M13.6838 2.99322C12.9476 2.24967 12.0721 1.65862 11.1072 1.25392C10.1423 0.849224 9.10705 0.638823 8.06074 0.634766H7.99997C5.87825 0.634766 3.84342 1.47762 2.34314 2.9779C0.842852 4.47819 0 6.51301 0 8.63474V12.9424C0 13.432 0.194504 13.9016 0.540724 14.2478C0.886944 14.5941 1.35652 14.7886 1.84615 14.7886H3.07691C3.56654 14.7886 4.03612 14.5941 4.38234 14.2478C4.72855 13.9016 4.92306 13.432 4.92306 12.9424V9.8655C4.92306 9.37587 4.72855 8.9063 4.38234 8.56008C4.03612 8.21386 3.56654 8.01935 3.07691 8.01935H1.25846C1.37714 6.73623 1.8591 5.51352 2.64786 4.49452C3.43661 3.47553 4.49949 2.70247 5.7119 2.26596C6.92431 1.82945 8.23603 1.74757 9.49332 2.02992C10.7506 2.31227 11.9014 2.94714 12.8107 3.86014C13.9222 4.97729 14.6058 6.44941 14.7423 8.01935H12.923C12.4334 8.01935 11.9638 8.21386 11.6176 8.56008C11.2714 8.9063 11.0769 9.37587 11.0769 9.8655V12.9424C11.0769 13.432 11.2714 13.9016 11.6176 14.2478C11.9638 14.5941 12.4334 14.7886 12.923 14.7886H14.7692C14.7692 15.2782 14.5747 15.7478 14.2285 16.094C13.8822 16.4402 13.4127 16.6347 12.923 16.6347H8.61535C8.45214 16.6347 8.29562 16.6995 8.18021 16.8149C8.06481 16.9304 7.99997 17.0869 7.99997 17.2501C7.99997 17.4133 8.06481 17.5698 8.18021 17.6852C8.29562 17.8006 8.45214 17.8655 8.61535 17.8655H12.923C13.7391 17.8655 14.5217 17.5413 15.0987 16.9643C15.6758 16.3872 15.9999 15.6046 15.9999 14.7886V8.63474C16.0039 7.58826 15.8014 6.55127 15.404 5.5832C15.0065 4.61513 14.422 3.73499 13.6838 2.99322ZM3.07691 9.25012C3.24012 9.25012 3.39665 9.31495 3.51205 9.43036C3.62746 9.54577 3.69229 9.70229 3.69229 9.8655V12.9424C3.69229 13.1056 3.62746 13.2621 3.51205 13.3776C3.39665 13.493 3.24012 13.5578 3.07691 13.5578H1.84615C1.68294 13.5578 1.52641 13.493 1.41101 13.3776C1.2956 13.2621 1.23076 13.1056 1.23076 12.9424V9.25012H3.07691ZM12.923 13.5578C12.7598 13.5578 12.6033 13.493 12.4879 13.3776C12.3725 13.2621 12.3076 13.1056 12.3076 12.9424V9.8655C12.3076 9.70229 12.3725 9.54577 12.4879 9.43036C12.6033 9.31495 12.7598 9.25012 12.923 9.25012H14.7692V13.5578H12.923Z" fill="#131B20"/>
</svg>
