<svg width="19" height="17" viewBox="0 0 19 17" fill="none" xmlns="http://www.w3.org/2000/svg">
<path d="M18.2368 8.05485C18.2368 8.24772 18.1578 8.43269 18.0172 8.56908C17.8765 8.70546 17.6857 8.78208 17.4868 8.78208H9.23702C9.03812 8.78208 8.84736 8.70546 8.70671 8.56908C8.56606 8.43269 8.48704 8.24772 8.48704 8.05485C8.48704 7.86197 8.56606 7.677 8.70671 7.54062C8.84736 7.40424 9.03812 7.32762 9.23702 7.32762H17.4868C17.6857 7.32762 17.8765 7.40424 18.0172 7.54062C18.1578 7.677 18.2368 7.86197 18.2368 8.05485ZM9.23702 2.96425H17.4868C17.6857 2.96425 17.8765 2.88763 18.0172 2.75125C18.1578 2.61487 18.2368 2.42989 18.2368 2.23702C18.2368 2.04415 18.1578 1.85917 18.0172 1.72279C17.8765 1.58641 17.6857 1.50979 17.4868 1.50979H9.23702C9.03812 1.50979 8.84736 1.58641 8.70671 1.72279C8.56606 1.85917 8.48704 2.04415 8.48704 2.23702C8.48704 2.42989 8.56606 2.61487 8.70671 2.75125C8.84736 2.88763 9.03812 2.96425 9.23702 2.96425ZM17.4868 13.1454H9.23702C9.03812 13.1454 8.84736 13.2221 8.70671 13.3584C8.56606 13.4948 8.48704 13.6798 8.48704 13.8727C8.48704 14.0655 8.56606 14.2505 8.70671 14.3869C8.84736 14.5233 9.03812 14.5999 9.23702 14.5999H17.4868C17.6857 14.5999 17.8765 14.5233 18.0172 14.3869C18.1578 14.2505 18.2368 14.0655 18.2368 13.8727C18.2368 13.6798 18.1578 13.4948 18.0172 13.3584C17.8765 13.2221 17.6857 13.1454 17.4868 13.1454ZM4.9565 0.26805L2.48718 2.66336L1.51783 1.72251C1.3771 1.58605 1.18623 1.50939 0.987216 1.50939C0.788198 1.50939 0.597331 1.58605 0.456603 1.72251C0.315876 1.85896 0.236816 2.04404 0.236816 2.23702C0.236816 2.43 0.315876 2.61508 0.456603 2.75154L1.95657 4.20599C2.02622 4.27361 2.10894 4.32725 2.19998 4.36384C2.29103 4.40044 2.38862 4.41928 2.48718 4.41928C2.58574 4.41928 2.68333 4.40044 2.77438 4.36384C2.86543 4.32725 2.94814 4.27361 3.01779 4.20599L6.01772 1.29708C6.15845 1.16062 6.23751 0.975545 6.23751 0.782564C6.23751 0.589584 6.15845 0.404508 6.01772 0.26805C5.877 0.131593 5.68613 0.0549316 5.48711 0.0549316C5.28809 0.0549316 5.09723 0.131593 4.9565 0.26805ZM4.9565 6.08588L2.48718 8.48119L1.51783 7.54033C1.3771 7.40388 1.18623 7.32722 0.987216 7.32722C0.788198 7.32722 0.597331 7.40388 0.456603 7.54033C0.315876 7.67679 0.236816 7.86187 0.236816 8.05485C0.236816 8.1504 0.256226 8.24502 0.293937 8.3333C0.331648 8.42158 0.386922 8.5018 0.456603 8.56936L1.95657 10.0238C2.02622 10.0914 2.10894 10.1451 2.19998 10.1817C2.29103 10.2183 2.38862 10.2371 2.48718 10.2371C2.58574 10.2371 2.68333 10.2183 2.77438 10.1817C2.86543 10.1451 2.94814 10.0914 3.01779 10.0238L6.01772 7.11491C6.15845 6.97845 6.23751 6.79337 6.23751 6.60039C6.23751 6.40741 6.15845 6.22233 6.01772 6.08588C5.877 5.94942 5.68613 5.87276 5.48711 5.87276C5.28809 5.87276 5.09723 5.94942 4.9565 6.08588ZM4.9565 11.9037L2.48718 14.299L1.51783 13.3582C1.44815 13.2906 1.36542 13.237 1.27438 13.2004C1.18334 13.1639 1.08576 13.145 0.987216 13.145C0.888672 13.145 0.791093 13.1639 0.70005 13.2004C0.609008 13.237 0.526284 13.2906 0.456603 13.3582C0.386922 13.4257 0.331648 13.5059 0.293937 13.5942C0.256226 13.6825 0.236816 13.7771 0.236816 13.8727C0.236816 13.9682 0.256226 14.0628 0.293937 14.1511C0.331648 14.2394 0.386922 14.3196 0.456603 14.3872L1.95657 15.8416C2.02622 15.9093 2.10894 15.9629 2.19998 15.9995C2.29103 16.0361 2.38862 16.0549 2.48718 16.0549C2.58574 16.0549 2.68333 16.0361 2.77438 15.9995C2.86543 15.9629 2.94814 15.9093 3.01779 15.8416L6.01772 12.9327C6.15845 12.7963 6.23751 12.6112 6.23751 12.4182C6.23751 12.2252 6.15845 12.0402 6.01772 11.9037C5.877 11.7672 5.68613 11.6906 5.48711 11.6906C5.28809 11.6906 5.09723 11.7672 4.9565 11.9037Z" fill="#131B20"/>
</svg>
