<svg width="19" height="17" viewBox="0 0 19 17" fill="none" xmlns="http://www.w3.org/2000/svg">
<path d="M17.2957 3H2.29565C2.09674 3 1.90598 2.92098 1.76532 2.78033C1.62467 2.63968 1.54565 2.44891 1.54565 2.25C1.54565 2.05109 1.62467 1.86032 1.76532 1.71967C1.90598 1.57902 2.09674 1.5 2.29565 1.5H15.0457C15.2446 1.5 15.4353 1.42098 15.576 1.28033C15.7166 1.13968 15.7957 0.948912 15.7957 0.75C15.7957 0.551088 15.7166 0.360322 15.576 0.21967C15.4353 0.0790178 15.2446 0 15.0457 0H2.29565C1.69892 0 1.12662 0.237053 0.704664 0.65901C0.282707 1.08097 0.0456543 1.65326 0.0456543 2.25V14.25C0.0456543 14.8467 0.282707 15.419 0.704664 15.841C1.12662 16.2629 1.69892 16.5 2.29565 16.5H17.2957C17.6935 16.5 18.075 16.342 18.3563 16.0607C18.6376 15.7794 18.7957 15.3978 18.7957 15V4.5C18.7957 4.10218 18.6376 3.72064 18.3563 3.43934C18.075 3.15804 17.6935 3 17.2957 3ZM17.2957 15H2.29565C2.09674 15 1.90598 14.921 1.76532 14.7803C1.62467 14.6397 1.54565 14.4489 1.54565 14.25V4.37156C1.78648 4.45693 2.04015 4.50037 2.29565 4.5H17.2957V15ZM12.7957 9.375C12.7957 9.1525 12.8616 8.93499 12.9853 8.74998C13.1089 8.56498 13.2846 8.42078 13.4901 8.33564C13.6957 8.25049 13.9219 8.22821 14.1401 8.27162C14.3584 8.31502 14.5588 8.42217 14.7161 8.5795C14.8735 8.73684 14.9806 8.93729 15.024 9.15552C15.0674 9.37375 15.0452 9.59995 14.96 9.80552C14.8749 10.0111 14.7307 10.1868 14.5457 10.3104C14.3607 10.434 14.1432 10.5 13.9207 10.5C13.6223 10.5 13.3361 10.3815 13.1252 10.1705C12.9142 9.95952 12.7957 9.67337 12.7957 9.375Z" fill="#677379"/>
</svg>
