<svg width="28" height="24" viewBox="0 0 28 24" fill="none" xmlns="http://www.w3.org/2000/svg">
<path d="M26.1378 13.228C25.7901 12.9972 25.3939 12.8498 24.98 12.797C24.5661 12.7442 24.1456 12.7876 23.7512 12.9238L19.189 14.3141C19.265 13.8509 19.2352 13.3765 19.1018 12.9264C18.9683 12.4763 18.7348 12.0623 18.4186 11.7153C18.1024 11.3683 17.7117 11.0974 17.2759 10.9229C16.8401 10.7484 16.3705 10.6748 15.9022 10.7076L10.3545 11.0955C9.88858 11.1269 9.43345 11.2503 9.01546 11.4587C8.59747 11.667 8.22491 11.9561 7.9193 12.3092L5.58791 14.9924L2.40848 15.2147C1.93822 15.2476 1.50028 15.4659 1.19101 15.8217C0.881739 16.1775 0.726465 16.6416 0.759349 17.1118L1.06932 21.5446C1.10221 22.0149 1.32055 22.4528 1.67633 22.7621C2.03211 23.0714 2.49617 23.2266 2.96643 23.1938L14.4917 22.3878C14.5642 22.3828 14.6358 22.3688 14.7049 22.3462L21.6734 20.0771C21.7178 20.0632 21.7609 20.0453 21.8021 20.0236L25.9815 17.8894L26.0288 17.8638C26.4283 17.628 26.7612 17.2944 26.9961 16.8943C27.2311 16.4943 27.3603 16.041 27.3717 15.5772C27.383 15.1134 27.2761 14.6544 27.061 14.2433C26.8459 13.8323 26.5297 13.4828 26.1422 13.2277L26.1378 13.228ZM2.53247 16.9878L5.19216 16.8019L5.50213 21.2347L2.84244 21.4206L2.53247 16.9878ZM25.1402 16.3212L21.0545 18.4088L14.2569 20.6225L7.27525 21.1107L6.92893 16.1581L9.2615 13.476C9.41399 13.2992 9.60011 13.1544 9.80904 13.0501C10.018 12.9459 10.2455 12.8842 10.4785 12.8686L16.0262 12.4807C16.3789 12.456 16.7269 12.5725 16.9938 12.8044C17.2606 13.0364 17.4244 13.3648 17.449 13.7175C17.4737 14.0702 17.3572 14.4183 17.1253 14.6851C16.8933 14.9519 16.5649 15.1157 16.2122 15.1404L13.1092 15.3573C12.8741 15.3738 12.6551 15.483 12.5005 15.6608C12.3458 15.8387 12.2682 16.0708 12.2846 16.3059C12.3011 16.541 12.4103 16.76 12.5881 16.9146C12.766 17.0693 12.9981 17.1469 13.2332 17.1305L16.7794 16.8825C16.8462 16.8776 16.9122 16.8656 16.9763 16.8465L24.2818 14.6195L24.3155 14.6082C24.5378 14.5295 24.7813 14.5357 24.9993 14.6257C25.2172 14.7157 25.3942 14.8831 25.4962 15.0957C25.5981 15.3083 25.6178 15.5512 25.5515 15.7774C25.4852 16.0037 25.3375 16.1975 25.1369 16.3215L25.1402 16.3212ZM18.4379 8.74845C18.657 8.73338 18.8744 8.7003 19.088 8.64954C19.3816 9.35458 19.8709 9.96082 20.4981 10.3966C21.1253 10.8323 21.8642 11.0794 22.6274 11.1086C23.3905 11.1377 24.1461 10.9477 24.8047 10.5611C25.4633 10.1744 25.9975 9.60729 26.344 8.9267C26.6905 8.2461 26.8348 7.48052 26.76 6.72047C26.6852 5.96042 26.3944 5.23768 25.9218 4.6377C25.4493 4.03772 24.8148 3.5856 24.0934 3.33477C23.3721 3.08395 22.594 3.04492 21.8511 3.2223C21.5684 2.54299 21.1038 1.95484 20.5084 1.52258C19.9129 1.09031 19.2098 0.83069 18.4763 0.772282C17.7429 0.713874 17.0075 0.858945 16.3512 1.19153C15.6948 1.52411 15.143 2.03132 14.7563 2.65733C14.3697 3.28333 14.1632 4.00388 14.1596 4.73966C14.1561 5.47544 14.3556 6.19794 14.7362 6.82765C15.1168 7.45735 15.6638 7.96985 16.3169 8.30874C16.97 8.64764 17.7039 8.79979 18.4379 8.74845ZM24.9941 6.95365C25.0248 7.39201 24.9247 7.82962 24.7067 8.21114C24.4886 8.59265 24.1623 8.90094 23.7691 9.09702C23.3758 9.29309 22.9332 9.36814 22.4973 9.31269C22.0614 9.25723 21.6517 9.07376 21.3201 8.78546C20.9884 8.49717 20.7497 8.117 20.6341 7.69304C20.5185 7.26908 20.5313 6.82037 20.6707 6.40364C20.8101 5.98692 21.07 5.6209 21.4175 5.35187C21.7649 5.08284 22.1844 4.92289 22.6227 4.89223C23.2106 4.85113 23.7906 5.04522 24.2354 5.43181C24.6801 5.8184 24.953 6.36582 24.9941 6.95365ZM18.0039 2.54252C18.4875 2.50895 18.9687 2.63442 19.3743 2.8998C19.7799 3.16519 20.0876 3.55592 20.2504 4.01243C19.8187 4.36367 19.4651 4.80116 19.2121 5.2969C18.9591 5.79264 18.8124 6.33573 18.7813 6.89142C18.6289 6.93566 18.4722 6.96379 18.3139 6.97533C17.7261 7.01643 17.146 6.82234 16.7013 6.43575C16.2566 6.04916 15.9836 5.50174 15.9425 4.91391C15.9014 4.32608 16.0955 3.746 16.4821 3.30128C16.8687 2.85656 17.4161 2.58363 18.0039 2.54252Z" fill="#131B20"/>
</svg>
