<svg width="26" height="26" viewBox="0 0 26 26" fill="none" xmlns="http://www.w3.org/2000/svg">
<path d="M4.27769 25.7119C3.57581 25.7609 2.96472 25.5593 2.44442 25.107C1.92413 24.6548 1.63944 24.0777 1.59036 23.3758L0.289962 4.77928C0.240881 4.0774 0.442485 3.46631 0.894772 2.94601C1.34706 2.42571 1.92414 2.14102 2.62603 2.09194L21.2225 0.791548C21.9244 0.742468 22.5355 0.944071 23.0558 1.39636C23.5761 1.84865 23.8608 2.42573 23.9099 3.12761L25.2103 21.7241C25.2594 22.426 25.0577 23.0371 24.6055 23.5574C24.1532 24.0777 23.5761 24.3624 22.8742 24.4115L4.27769 25.7119ZM4.13196 23.6277L22.7285 22.3274C22.8355 22.3199 22.9303 22.2684 23.013 22.1731C23.0959 22.0779 23.1336 21.9768 23.1262 21.8699L21.8258 3.27335C21.8183 3.16636 21.7669 3.07153 21.6715 2.98884C21.5763 2.9059 21.4753 2.86818 21.3683 2.87566L2.77176 4.17605C2.66478 4.18353 2.56994 4.23496 2.48725 4.33033C2.40432 4.42549 2.36659 4.52656 2.37407 4.63354L3.67447 23.2301C3.68195 23.337 3.73337 23.4319 3.82875 23.5146C3.9239 23.5975 4.02497 23.6352 4.13196 23.6277ZM7.65398 20.24L14.601 19.7542C14.8967 19.7336 15.1373 19.6164 15.3227 19.4029C15.5084 19.1895 15.5909 18.935 15.5702 18.6393C15.5495 18.3436 15.4324 18.103 15.2189 17.9176C15.0055 17.7319 14.751 17.6494 14.4553 17.6701L7.50825 18.1559C7.21254 18.1766 6.97197 18.2937 6.78655 18.5072C6.60088 18.7206 6.51838 18.9751 6.53906 19.2708C6.55974 19.5665 6.67686 19.8071 6.89041 19.9925C7.10375 20.1782 7.35827 20.2607 7.65398 20.24ZM7.26536 14.6824L18.3806 13.9051C18.6763 13.8845 18.9169 13.7673 19.1023 13.5538C19.288 13.3404 19.3705 13.0859 19.3498 12.7902C19.3291 12.4945 19.212 12.2539 18.9985 12.0685C18.7851 11.8828 18.5306 11.8003 18.2349 11.821L7.11962 12.5983C6.82391 12.619 6.58334 12.7361 6.39792 12.9496C6.21225 13.163 6.12976 13.4175 6.15043 13.7132C6.17111 14.0089 6.28823 14.2495 6.50178 14.4349C6.71512 14.6206 6.96965 14.7031 7.26536 14.6824ZM6.87673 9.12476L17.992 8.3475C18.2877 8.32683 18.5283 8.20971 18.7137 7.99616C18.8994 7.78282 18.9818 7.52829 18.9612 7.23258C18.9405 6.93687 18.8234 6.6963 18.6098 6.51088C18.3965 6.32521 18.142 6.24272 17.8462 6.26339L6.73099 7.04065C6.43528 7.06133 6.19472 7.17844 6.00929 7.392C5.82362 7.60533 5.74113 7.85986 5.76181 8.15557C5.78249 8.45128 5.8996 8.69185 6.11315 8.87727C6.32649 9.06294 6.58102 9.14544 6.87673 9.12476Z" fill="#131B20"/>
</svg>
