<svg width="27" height="28" viewBox="0 0 27 28" fill="none" xmlns="http://www.w3.org/2000/svg">
<path d="M21.1969 14.3023L15.2226 12.5575L12.6698 6.87924C12.5187 6.54299 12.268 6.26121 11.9516 6.07191C11.6353 5.88261 11.2685 5.7949 10.9007 5.82062C10.533 5.84633 10.1819 5.98424 9.895 6.21572C9.60807 6.44721 9.39905 6.76114 9.29615 7.11515L7.5449 13.0944L1.8666 15.6472C1.53035 15.7984 1.24857 16.0491 1.05927 16.3654C0.869967 16.6818 0.782258 17.0486 0.807975 17.4163C0.833692 17.7841 0.971597 18.1351 1.20308 18.4221C1.43457 18.709 1.7485 18.918 2.10251 19.0209L8.08178 20.7722L10.6346 26.4505C10.7858 26.7867 11.0364 27.0685 11.3528 27.2578C11.6691 27.4471 12.0359 27.5348 12.4037 27.5091C12.7715 27.4834 13.1225 27.3455 13.4094 27.114C13.6964 26.8825 13.9054 26.5686 14.0083 26.2146L15.7595 20.2353L21.4378 17.6825C21.7741 17.5313 22.0559 17.2806 22.2452 16.9643C22.4345 16.6479 22.5222 16.2811 22.4964 15.9134C22.4707 15.5456 22.3328 15.1946 22.1013 14.9076C21.8699 14.6207 21.5559 14.4117 21.2019 14.3088L21.1969 14.3023ZM14.6346 18.7505C14.5151 18.8042 14.4087 18.8833 14.3228 18.9821C14.2369 19.081 14.1734 19.1973 14.1368 19.3231L12.2827 25.6806L9.56659 19.6472C9.51282 19.5265 9.43325 19.4189 9.3335 19.3322C9.23374 19.2455 9.11621 19.1817 8.98915 19.1452L2.6365 17.2953L8.66987 14.5792C8.79061 14.5255 8.89812 14.4459 8.98484 14.3461C9.07155 14.2464 9.13538 14.1288 9.17183 14.0018L11.0218 7.64914L13.7378 13.6825C13.7916 13.802 13.8706 13.9083 13.9695 13.9943C14.0683 14.0802 14.1847 14.1437 14.3104 14.1803L20.6679 16.0344L14.6346 18.7505ZM14.4442 4.66977C14.4274 4.4302 14.5065 4.1938 14.6641 4.01256C14.8216 3.83132 15.0447 3.72009 15.2843 3.70334L17.0908 3.57701L16.9645 1.77048C16.9477 1.53092 17.0268 1.29452 17.1844 1.11328C17.3419 0.93204 17.565 0.82081 17.8046 0.804058C18.0441 0.787306 18.2805 0.866406 18.4618 1.02396C18.643 1.1815 18.7542 1.4046 18.771 1.64416L18.8973 3.45069L20.7038 3.32436C20.9434 3.30761 21.1798 3.38671 21.3611 3.54426C21.5423 3.70181 21.6535 3.92491 21.6703 4.16447C21.687 4.40403 21.6079 4.64043 21.4504 4.82167C21.2928 5.00291 21.0697 5.11414 20.8302 5.13089L19.0236 5.25722L19.15 7.06375C19.1667 7.30331 19.0876 7.53971 18.9301 7.72095C18.7725 7.90219 18.5494 8.01342 18.3099 8.03017C18.0703 8.04693 17.8339 7.96783 17.6527 7.81028C17.4714 7.65273 17.3602 7.42963 17.3434 7.19007L17.2171 5.38354L15.4106 5.50987C15.171 5.52662 14.9346 5.44752 14.7534 5.28997C14.5721 5.13242 14.4609 4.90933 14.4442 4.66977ZM26.5656 9.26824C26.5823 9.5078 26.5032 9.74421 26.3457 9.92545C26.1881 10.1067 25.965 10.2179 25.7255 10.2347L24.8222 10.2978L24.8854 11.2011C24.9021 11.4407 24.823 11.6771 24.6655 11.8583C24.5079 12.0395 24.2848 12.1508 24.0453 12.1675C23.8057 12.1843 23.5693 12.1052 23.3881 11.9476C23.2068 11.7901 23.0956 11.567 23.0788 11.3274L23.0157 10.4242L22.1124 10.4873C21.8729 10.5041 21.6364 10.425 21.4552 10.2674C21.274 10.1099 21.1627 9.88678 21.146 9.64721C21.1292 9.40766 21.2083 9.17125 21.3659 8.99001C21.5234 8.80877 21.7465 8.69754 21.9861 8.68079L22.8894 8.61763L22.8262 7.71436C22.8094 7.4748 22.8885 7.2384 23.0461 7.05716C23.2036 6.87592 23.4267 6.76469 23.6663 6.74794C23.9059 6.73118 24.1423 6.81028 24.3235 6.96783C24.5047 7.12538 24.616 7.34848 24.6327 7.58804L24.6959 8.4913L25.5991 8.42814C25.8387 8.41139 26.0751 8.49049 26.2563 8.64804C26.4376 8.80559 26.5488 9.02868 26.5656 9.26824Z" fill="#131B20"/>
</svg>
