<svg width="28" height="23" viewBox="0 0 28 23" fill="none" xmlns="http://www.w3.org/2000/svg">
<path d="M27.3414 19.4482C27.3599 19.7127 27.2726 19.9738 27.0986 20.174C26.9246 20.3741 26.6782 20.497 26.4136 20.5155L2.47207 22.1896C2.2075 22.2081 1.94642 22.1208 1.74626 21.9468C1.54609 21.7728 1.42325 21.5264 1.40475 21.2618L0.00962159 1.31055C-0.00887898 1.04598 0.0784784 0.784898 0.252476 0.584737C0.426474 0.384576 0.672859 0.261732 0.937429 0.243232C1.202 0.224731 1.46308 0.312089 1.66324 0.486086C1.86341 0.660084 1.98625 0.906469 2.00475 1.17104L2.95248 14.7242L8.79062 8.00683C8.87678 7.9076 8.98166 7.82633 9.09925 7.76766C9.21684 7.70899 9.34484 7.67407 9.47594 7.66491C9.60703 7.65574 9.73865 7.6725 9.86326 7.71424C9.98788 7.75597 10.103 7.82186 10.2022 7.90813L13.7164 10.9642L19.8272 3.93454L17.2472 4.11495C16.9827 4.13345 16.7216 4.04609 16.5214 3.87209C16.3213 3.6981 16.1984 3.45171 16.1799 3.18714C16.1614 2.92257 16.2488 2.66149 16.4228 2.46133C16.5968 2.26116 16.8432 2.13832 17.1077 2.11982L22.0955 1.77104C22.3601 1.75254 22.6212 1.83989 22.8214 2.01389C23.0215 2.18789 23.1444 2.43428 23.1629 2.69885L23.5116 7.68667C23.5301 7.95124 23.4428 8.21232 23.2688 8.41248C23.0948 8.61264 22.8484 8.73549 22.5838 8.75399C22.3193 8.77249 22.0582 8.68513 21.858 8.51113C21.6579 8.33713 21.535 8.09075 21.5165 7.82618L21.3361 5.24623L14.5702 13.0309C14.484 13.1301 14.3791 13.2114 14.2615 13.2701C14.1439 13.3288 14.0159 13.3637 13.8848 13.3728C13.7537 13.382 13.6221 13.3652 13.4975 13.3235C13.3729 13.2818 13.2577 13.2159 13.1586 13.1296L9.64437 10.0736L3.14972 17.5448L3.33012 20.1248L26.2741 18.5204C26.5387 18.5019 26.7998 18.5892 26.9999 18.7632C27.2001 18.9372 27.3229 19.1836 27.3414 19.4482Z" fill="black"/>
</svg>
