<svg width="27" height="26" viewBox="0 0 27 26" fill="none" xmlns="http://www.w3.org/2000/svg">
<path d="M11.4158 1.15541L1.11568 13.0043C0.842507 13.3186 0.705356 13.7285 0.734402 14.1439C0.763448 14.5592 0.956311 14.9461 1.27056 15.2192L13.1195 25.5193C13.4337 25.7925 13.8436 25.9297 14.259 25.9006C14.6744 25.8716 15.0612 25.6787 15.3344 25.3645L25.6345 13.5155C25.9077 13.2013 26.0448 12.7914 26.0158 12.376C25.9867 11.9606 25.7939 11.5738 25.4796 11.3006L13.6307 1.00053C13.3164 0.727356 12.9065 0.590205 12.4912 0.619251C12.0758 0.648297 11.689 0.84116 11.4158 1.15541ZM24.4496 12.4855L14.1495 24.3345L2.30058 14.0343L12.6007 2.18542L24.4496 12.4855Z" fill="#131B20"/>
</svg>
