<svg width="28" height="20" viewBox="0 0 28 20" fill="none" xmlns="http://www.w3.org/2000/svg">
<path d="M19.7591 5.37073L19.7159 4.75397C19.5217 1.97687 15.1864 0.174783 9.63105 0.563248C4.07574 0.951712 0.0333378 3.33963 0.227531 6.11673L0.53725 10.5459C0.699001 12.8591 3.73419 14.4939 7.95271 14.7519L7.99561 15.3654C8.1898 18.1425 12.5252 19.9446 18.0805 19.5561C23.6358 19.1676 27.6782 16.7797 27.484 14.0026L27.1743 9.57344C27.014 7.28134 24.0706 5.63784 19.7591 5.37073ZM25.4026 9.69733C25.505 11.1612 22.2101 13.0362 17.6469 13.3553C17.2339 13.3841 16.8232 13.3984 16.4171 13.4001C18.7447 12.3627 20.1418 10.8441 20.0257 9.18315L19.8843 7.16123C23.2262 7.4227 25.3273 8.61993 25.4026 9.69733ZM7.8272 12.957L7.64299 10.3228C8.53218 10.376 9.4239 10.3708 10.3124 10.3075C11.2011 10.2466 12.0849 10.1275 12.958 9.9511L13.1422 12.5854C12.2715 12.7769 11.3877 12.9037 10.4983 12.965C9.60893 13.0281 8.71614 13.0255 7.8272 12.957ZM18.145 7.74908L18.254 9.30704C18.319 10.2361 17.0146 11.3298 14.8877 12.0872L14.7068 9.49945C16.1121 9.05291 17.2862 8.45228 18.145 7.74908ZM9.75493 2.33492C14.3181 2.01583 17.8419 3.41401 17.9443 4.87786C18.0466 6.3417 14.7517 8.21669 10.1885 8.53578C5.62537 8.85487 2.10157 7.45669 1.99921 5.99284C1.89684 4.529 5.19177 2.65401 9.75493 2.33492ZM2.30892 10.422L2.19998 8.86406C3.14829 9.4409 4.39465 9.87227 5.8484 10.1189L6.02935 12.7066C3.81781 12.2526 2.37389 11.3511 2.30892 10.422ZM9.76728 15.2415L9.73499 14.7798C10.027 14.7705 10.3221 14.7576 10.6221 14.7366C11.0518 14.7066 11.4704 14.6629 11.8806 14.6097C12.3497 14.7415 12.8255 14.8479 13.3061 14.9284L13.4877 17.5261C11.2762 17.0721 9.83224 16.1705 9.76728 15.2415ZM15.2856 17.7765L15.1009 15.1356C15.99 15.1924 16.882 15.1895 17.7708 15.1269C18.6595 15.066 19.5432 14.947 20.4164 14.7706L20.6006 17.4048C18.8564 17.7864 17.0659 17.9116 15.2856 17.7765ZM22.3461 16.9067L22.1651 14.3189C23.5704 13.8724 24.7446 13.2717 25.6034 12.5685L25.7123 14.1265C25.7773 15.0555 24.4729 16.1493 22.3461 16.9067Z" fill="#131B20"/>
</svg>
