<svg width="26" height="22" viewBox="0 0 26 22" fill="none" xmlns="http://www.w3.org/2000/svg">
<path d="M25.3661 12.1365C25.3481 12.393 25.2258 12.6317 25.0261 12.8C24.8263 12.9684 24.5654 13.0525 24.3009 13.034L13.3279 12.2667C13.0634 12.2482 12.8168 12.1286 12.6424 11.9341C12.468 11.7396 12.3801 11.4862 12.398 11.2297C12.416 10.9732 12.5383 10.7345 12.738 10.5662C12.9378 10.3978 13.1986 10.3137 13.4632 10.3322L24.4362 11.0995C24.7007 11.118 24.9473 11.2376 25.1217 11.4321C25.2961 11.6266 25.384 11.88 25.3661 12.1365ZM13.869 4.52852L24.842 5.29582C25.1065 5.31432 25.3674 5.23015 25.5672 5.06183C25.7669 4.89352 25.8892 4.65484 25.9072 4.3983C25.9251 4.14176 25.8372 3.88838 25.6628 3.6939C25.4884 3.49942 25.2418 3.37977 24.9773 3.36127L14.0043 2.59396C13.7397 2.57546 13.4789 2.65963 13.2791 2.82795C13.0794 2.99627 12.9571 3.23495 12.9391 3.49148C12.9212 3.74802 13.0091 4.0014 13.1835 4.19588C13.3579 4.39036 13.6045 4.51002 13.869 4.52852ZM23.895 18.8377L12.9221 18.0704C12.6575 18.0519 12.3967 18.136 12.1969 18.3044C11.9972 18.4727 11.8749 18.7114 11.8569 18.9679C11.839 19.2244 11.9269 19.4778 12.1013 19.6723C12.2757 19.8668 12.5223 19.9864 12.7868 20.0049L23.7598 20.7722C24.0243 20.7907 24.2852 20.7066 24.4849 20.5382C24.6847 20.3699 24.807 20.1312 24.8249 19.8747C24.8429 19.6182 24.755 19.3648 24.5806 19.1703C24.4062 18.9758 24.1596 18.8562 23.895 18.8377ZM8.42634 0.544215L4.91915 3.50051L3.71734 2.15894C3.54285 1.96435 3.29611 1.84463 3.0314 1.82612C2.76669 1.80761 2.50569 1.89183 2.30582 2.06024C2.10594 2.22865 1.98357 2.46746 1.96563 2.72414C1.94768 2.98082 2.03562 3.23434 2.21011 3.42893L4.06991 5.50299C4.15627 5.59941 4.2613 5.67844 4.37899 5.73559C4.49669 5.79274 4.62474 5.82687 4.75583 5.83603C4.88693 5.8452 5.01849 5.82922 5.14299 5.78901C5.26749 5.7488 5.3825 5.68515 5.48143 5.6017L9.74215 2.01161C9.94202 1.8432 10.0644 1.60439 10.0823 1.34771C10.1003 1.09103 10.0123 0.837507 9.83786 0.642918C9.66337 0.448329 9.41663 0.328611 9.15192 0.3101C8.88721 0.29159 8.62621 0.375803 8.42634 0.544215ZM7.88523 8.28242L4.37804 11.2387L3.17623 9.89715C3.00174 9.70256 2.755 9.58284 2.49029 9.56433C2.22558 9.54582 1.96458 9.63003 1.76471 9.79844C1.56484 9.96685 1.44247 10.2057 1.42452 10.4623C1.41563 10.5894 1.43265 10.7171 1.47459 10.838C1.51654 10.959 1.5826 11.0708 1.669 11.1671L3.5288 13.2412C3.61516 13.3376 3.72019 13.4167 3.83788 13.4738C3.95558 13.5309 4.08363 13.5651 4.21473 13.5742C4.34582 13.5834 4.47738 13.5674 4.60188 13.5272C4.72638 13.487 4.84139 13.4234 4.94032 13.3399L9.20104 9.74982C9.40091 9.58141 9.52328 9.34259 9.54123 9.08591C9.55918 8.82923 9.47124 8.57571 9.29675 8.38112C9.12226 8.18653 8.87552 8.06682 8.61081 8.04831C8.3461 8.0298 8.0851 8.11401 7.88523 8.28242ZM7.34412 16.0206L3.83693 18.9769L2.63512 17.6354C2.54872 17.539 2.44368 17.46 2.32598 17.4029C2.20829 17.3458 2.08025 17.3117 1.94918 17.3025C1.81811 17.2934 1.68657 17.3093 1.56207 17.3495C1.43758 17.3897 1.32257 17.4533 1.2236 17.5367C1.12463 17.62 1.04365 17.7216 0.985284 17.8355C0.926914 17.9494 0.892297 18.0735 0.88341 18.2006C0.874522 18.3277 0.891538 18.4553 0.933487 18.5762C0.975435 18.6972 1.04149 18.809 1.12789 18.9053L2.9877 20.9794C3.07405 21.0758 3.17908 21.1549 3.29678 21.212C3.41447 21.2691 3.54253 21.3033 3.67362 21.3124C3.80471 21.3216 3.93627 21.3056 4.06077 21.2654C4.18528 21.2252 4.30028 21.1616 4.39922 21.0781L8.65993 17.488C8.85981 17.3196 8.98217 17.0808 9.00012 16.8241C9.01807 16.5674 8.93013 16.3139 8.75564 16.1193C8.58116 15.9247 8.33442 15.805 8.0697 15.7865C7.80499 15.768 7.54399 15.8522 7.34412 16.0206Z" fill="#131B20"/>
</svg>
