<svg width="24" height="24" viewBox="0 0 24 24" fill="none" xmlns="http://www.w3.org/2000/svg">
<path d="M22.3283 19.1673L18.059 22.8785C17.8587 23.0526 17.5975 23.14 17.3328 23.1215C17.068 23.103 16.8215 22.9801 16.6474 22.7798C16.4733 22.5795 16.3859 22.3183 16.4044 22.0536C16.423 21.7888 16.5459 21.5423 16.7461 21.3682L19.1942 19.2413L1.65081 18.0146C1.38623 17.9961 1.13985 17.8732 0.965852 17.6731C0.791854 17.4729 0.704497 17.2118 0.722997 16.9472C0.741498 16.6827 0.864341 16.4363 1.0645 16.2623C1.26466 16.0883 1.52575 16.0009 1.79032 16.0194L19.3337 17.2462L17.2055 14.7993C17.0314 14.599 16.944 14.3378 16.9625 14.073C16.981 13.8083 17.1039 13.5618 17.3042 13.3877C17.5045 13.2136 17.7657 13.1262 18.0304 13.1447C18.2951 13.1632 18.5416 13.2861 18.7157 13.4864L22.427 17.7557C22.5132 17.8548 22.5791 17.97 22.6209 18.0946C22.6626 18.2192 22.6794 18.3508 22.6702 18.4819C22.661 18.613 22.6261 18.741 22.5674 18.8586C22.5088 18.9762 22.4275 19.0811 22.3283 19.1673ZM5.51374 9.97193C5.68783 10.1722 5.93436 10.2951 6.19907 10.3136C6.46379 10.3321 6.72502 10.2447 6.92529 10.0706C7.12557 9.89654 7.24848 9.65002 7.26699 9.3853C7.2855 9.12058 7.19809 8.85935 7.024 8.65908L4.89575 6.21216L22.4392 7.43892C22.7037 7.45742 22.9648 7.37006 23.165 7.19606C23.3651 7.02206 23.488 6.77568 23.5065 6.51111C23.525 6.24654 23.4376 5.98546 23.2636 5.78529C23.0896 5.58513 22.8432 5.46229 22.5787 5.44379L5.03527 4.21703L7.48335 2.09012C7.68362 1.91603 7.80653 1.66951 7.82504 1.40479C7.84355 1.14007 7.75614 0.878842 7.58205 0.678569C7.40796 0.478296 7.16143 0.355385 6.89672 0.336874C6.632 0.318364 6.37077 0.405769 6.1705 0.579864L1.90122 4.29109C1.80199 4.37725 1.72071 4.48213 1.66204 4.59972C1.60337 4.71731 1.56846 4.84532 1.55929 4.97641C1.55012 5.10751 1.56689 5.23912 1.60862 5.36374C1.65035 5.48835 1.71624 5.60352 1.80251 5.70265L5.51374 9.97193Z" fill="#131B20"/>
</svg>
